<svg version="1.1" id="Layer_1" xmlns="http://www.w3.org/2000/svg" xmlns:xlink="http://www.w3.org/1999/xlink" x="0px" y="0px"
	 width="100%" viewBox="0 0 1841 583" enable-background="new 0 0 1841 583" xml:space="preserve">
<path fill="#040404" opacity="1.000000" stroke="none" 
	d="
M1309.000000,584.000000 
	C872.666687,584.000000 436.833344,584.000000 1.000000,584.000000 
	C1.000000,389.666656 1.000000,195.333328 1.000000,1.000000 
	C614.666687,1.000000 1228.333374,1.000000 1842.000000,1.000000 
	C1842.000000,195.333328 1842.000000,389.666656 1842.000000,584.000000 
	C1664.500000,584.000000 1487.000000,584.000000 1309.000000,584.000000 
M1093.156738,389.364014 
	C1095.965454,399.976196 1097.251831,401.207245 1106.048096,400.960632 
	C1107.674316,400.915039 1109.277832,400.054077 1110.891846,399.569489 
	C1109.937012,397.708710 1108.982178,395.847931 1107.568970,393.620270 
	C1107.368042,393.082825 1107.167114,392.545349 1107.472656,391.626007 
	C1105.413208,387.264313 1103.482056,382.835114 1101.238403,378.570312 
	C1100.168213,376.536011 1098.503906,374.814148 1096.577759,372.657959 
	C1096.376221,372.107483 1096.174561,371.557007 1096.457031,370.697693 
	C1095.968872,370.133057 1095.480713,369.568451 1094.481934,368.684814 
	C1094.312622,368.125336 1094.143311,367.565887 1094.521118,366.624207 
	C1093.334106,364.753784 1092.147095,362.883331 1090.533569,360.709808 
	C1090.462158,360.376648 1090.390625,360.043457 1090.687378,358.970917 
	C1088.822876,353.395874 1087.261597,347.646790 1081.583130,343.665009 
	C1081.061279,343.088531 1080.539429,342.512024 1079.903442,341.201050 
	C1077.634277,341.132751 1074.629150,340.100433 1073.228394,341.169769 
	C1068.234741,344.981598 1065.452881,350.396179 1064.651489,357.246674 
	C1064.426880,357.495544 1064.202271,357.744385 1063.223389,358.067932 
	C1062.736328,359.625336 1062.249390,361.182739 1061.698608,363.258331 
	C1061.466553,363.505768 1061.234375,363.753204 1060.302368,364.026825 
	C1055.561523,372.667847 1050.779907,381.287048 1046.133545,389.978607 
	C1045.577148,391.019257 1045.756104,392.452972 1045.522461,394.284180 
	C1045.038452,394.868134 1044.554443,395.452118 1043.301270,396.112549 
	C1043.217163,397.639893 1042.471191,400.027832 1043.156372,400.554810 
	C1047.583984,403.959900 1055.925659,400.060394 1056.691528,394.137177 
	C1056.691528,394.137177 1056.990112,393.996857 1057.683350,393.969635 
	C1059.154907,391.874023 1060.626343,389.778412 1061.391968,388.687927 
	C1072.513550,391.215759 1082.991943,388.359192 1093.329834,388.670685 
	C1093.329834,388.670685 1093.449219,388.616852 1093.156738,389.364014 
M1557.954468,226.723450 
	C1559.395142,236.550812 1559.590820,246.766281 1562.510376,256.132660 
	C1571.240479,284.140686 1606.034424,297.233398 1631.630005,282.799927 
	C1635.177979,280.799194 1638.440552,278.292145 1642.294922,275.711792 
	C1642.781616,277.499115 1643.430908,278.874023 1643.486450,280.272491 
	C1643.668579,284.860138 1646.032104,286.001587 1650.336182,285.732330 
	C1656.813477,285.327118 1663.331421,285.403198 1669.827026,285.533905 
	C1673.106812,285.599884 1674.200684,284.420258 1674.108643,281.150177 
	C1673.883545,273.156311 1673.944824,265.153748 1673.931519,257.154633 
	C1673.860474,214.491867 1673.753296,171.829010 1673.822144,129.166458 
	C1673.828247,125.376221 1672.725586,124.214943 1669.005371,124.375443 
	C1662.850952,124.640976 1656.676270,124.438293 1650.510132,124.435081 
	C1646.435425,124.432961 1642.360718,124.434677 1637.877441,124.434677 
	C1637.877441,139.866165 1637.877441,154.472885 1637.877441,169.300140 
	C1636.651001,169.300140 1635.853638,169.321686 1635.057983,169.296860 
	C1624.803955,168.976852 1614.429443,167.509476 1604.323120,168.579193 
	C1586.978760,170.415070 1573.437500,179.188858 1564.989136,194.948013 
	C1559.807617,204.613235 1558.986572,215.253082 1557.954468,226.723450 
M126.122299,281.620758 
	C127.599182,283.077789 129.037399,285.749237 130.559128,285.797668 
	C141.707291,286.152649 152.874176,286.079346 164.029251,285.851471 
	C165.393585,285.823578 167.487152,284.358093 167.952835,283.086426 
	C174.238907,265.921143 180.220840,248.644913 186.427734,231.450165 
	C195.962616,205.036057 205.616470,178.664902 215.212494,152.272842 
	C217.963577,144.706482 220.689301,137.130905 223.442169,129.516663 
	C222.371780,129.086487 221.926208,128.752441 221.479126,128.750397 
	C210.320389,128.699844 199.157776,128.543259 188.007156,128.835938 
	C186.565567,128.873779 184.419250,131.013031 183.890030,132.607315 
	C172.160995,167.941681 160.618835,203.338074 149.003677,238.710373 
	C148.704361,239.621902 147.984543,240.395370 146.957840,242.037933 
	C144.208023,233.176819 141.848099,225.281738 139.309723,217.444458 
	C130.145447,189.149551 120.872971,160.889557 111.791229,132.568314 
	C110.845955,129.620544 109.410065,128.692215 106.463776,128.730530 
	C96.138153,128.864838 85.809700,128.769836 75.482552,128.814621 
	C74.404465,128.819305 73.327888,129.173782 71.647392,129.473557 
	C73.139717,133.760788 74.456535,137.638336 75.836662,141.493240 
	C84.128372,164.653183 92.422180,187.812393 100.739471,210.963165 
	C109.113022,234.270538 117.514763,257.567780 126.122299,281.620758 
M1234.052612,283.393433 
	C1252.958008,290.349396 1271.903809,290.716034 1290.504517,282.708374 
	C1307.088257,275.569000 1317.059570,262.758942 1320.654785,244.985596 
	C1324.014160,228.378433 1323.445190,212.014725 1315.723022,196.772339 
	C1305.984619,177.549988 1289.342529,168.422409 1268.185425,167.101761 
	C1248.943848,165.900650 1230.715576,168.614334 1216.834106,183.588928 
	C1199.294067,202.510284 1198.584229,225.283218 1203.941650,248.717728 
	C1207.661743,264.990173 1218.330200,276.100586 1234.052612,283.393433 
M843.781311,238.658539 
	C845.603943,238.556961 847.426331,238.370422 849.249146,238.366714 
	C871.061707,238.322372 892.874756,238.217575 914.686218,238.361191 
	C918.638367,238.387222 920.101501,237.058609 919.961914,233.215118 
	C919.762695,227.727356 920.192627,222.195923 919.692444,216.743805 
	C918.183228,200.293869 913.172668,185.432861 898.664429,175.658936 
	C888.054077,168.511032 875.978149,166.500702 863.457092,166.764252 
	C845.314209,167.146118 829.612671,172.895035 817.987732,187.653000 
	C809.794861,198.053970 807.013123,210.144684 806.029175,222.978729 
	C803.268433,258.987396 825.128784,284.988861 861.008850,288.014343 
	C875.422913,289.229767 889.648376,287.357208 903.546936,283.787262 
	C914.446106,280.987823 912.423828,282.707947 912.489563,271.963409 
	C912.515991,267.634399 912.582031,263.304840 912.532166,258.976685 
	C912.518188,257.758850 912.157166,256.545013 911.922668,255.132645 
	C907.075134,256.269928 902.779358,257.549774 898.391235,258.255890 
	C885.577209,260.317902 872.760071,262.369690 859.807190,258.879395 
	C850.203247,256.291534 841.874634,246.385437 843.781311,238.658539 
M232.053024,269.445099 
	C239.092819,276.864075 247.604858,281.964081 257.338928,284.874115 
	C278.969635,291.340729 300.221161,287.536224 321.345276,282.034332 
	C322.411316,281.756653 323.973816,280.430573 323.995880,279.559418 
	C324.200317,271.498932 324.116608,263.431152 324.116608,254.824936 
	C321.914886,255.383026 320.668091,255.699524 319.421051,256.015045 
	C304.475006,259.796753 289.432190,262.398041 273.992218,259.388306 
	C265.803619,257.792114 259.805786,253.229721 256.081726,245.727188 
	C253.212936,239.947662 254.117554,238.498123 260.620605,238.493179 
	C282.451324,238.476562 304.282715,238.369034 326.112183,238.526291 
	C330.208435,238.555786 331.862030,237.377838 331.645416,233.173431 
	C331.379944,228.020996 331.832184,222.828522 331.507568,217.682800 
	C330.773926,206.053360 328.081146,194.992493 320.781799,185.528946 
	C310.617920,172.351562 296.592987,167.469193 280.575378,167.006516 
	C263.981354,166.527206 248.548325,169.524857 235.709518,181.221161 
	C223.865158,192.011505 219.040726,205.740341 218.097549,221.201279 
	C217.033249,238.647827 219.749588,255.082748 232.053024,269.445099 
M653.168335,180.553207 
	C653.120544,201.718201 653.105896,222.883423 652.972839,244.047882 
	C652.959778,246.123627 652.798218,248.581741 651.716248,250.201462 
	C646.918579,257.383545 634.028076,260.684204 624.433960,257.538483 
	C617.598511,255.297272 615.004578,250.548828 614.727722,239.764359 
	C614.706360,238.931412 614.690857,238.098022 614.690369,237.264847 
	C614.677063,216.433243 614.623962,195.601471 614.700684,174.770187 
	C614.712036,171.677902 614.363037,169.636765 610.519043,169.683228 
	C601.021667,169.798065 591.520874,169.704193 582.022400,169.604446 
	C579.586792,169.578873 578.325989,170.273941 578.342407,172.986816 
	C578.502869,199.480652 578.275208,225.982010 578.869080,252.465271 
	C579.080078,261.875183 582.353210,270.749603 589.572205,277.567963 
	C605.670471,292.772705 637.348572,292.153595 653.151184,276.335815 
	C654.087524,275.398621 655.232239,274.669647 656.988770,273.284973 
	C657.631592,276.591156 658.316956,278.826538 658.449219,281.094208 
	C658.655151,284.625061 660.047913,286.003998 663.767456,285.817596 
	C670.752197,285.467590 677.765259,285.450531 684.759277,285.610596 
	C688.357788,285.692993 689.694275,284.688171 689.680786,280.826630 
	C689.556702,245.330582 689.574341,209.833633 689.717407,174.337631 
	C689.733032,170.457993 688.299805,169.493210 684.736267,169.594376 
	C677.575928,169.797623 670.405701,169.666306 663.239563,169.651306 
	C653.186462,169.630249 653.186462,169.621765 653.168335,180.553207 
M426.008026,228.211655 
	C426.112518,245.707794 426.250061,263.203857 426.289398,280.700134 
	C426.296082,283.663513 426.413116,285.889282 430.409546,285.806000 
	C439.737335,285.611572 449.072205,285.684357 458.403198,285.764862 
	C461.102264,285.788147 462.281433,284.940948 462.269653,282.031464 
	C462.167816,256.870026 462.326416,231.706711 462.080536,206.547134 
	C461.987946,197.072525 459.380035,188.163132 453.578552,180.398392 
	C441.556305,164.307724 414.833344,164.003677 400.342285,170.670242 
	C394.897980,173.174866 390.006714,176.881577 384.315948,180.376450 
	C383.865631,178.432922 383.232330,176.744659 383.124084,175.023376 
	C382.866608,170.929733 381.121002,169.245514 376.789917,169.472382 
	C370.143402,169.820511 363.457855,169.723953 356.801910,169.471695 
	C353.202301,169.335281 351.809875,170.293152 351.827850,174.163208 
	C351.994568,209.989243 352.018402,245.816132 351.974640,281.642639 
	C351.970581,284.979034 353.160156,285.923431 356.385620,285.838593 
	C365.212433,285.606506 374.052002,285.494873 382.876984,285.716278 
	C387.059265,285.821198 388.226166,284.431213 388.179779,280.275513 
	C387.928619,257.781891 387.958374,235.284912 387.928802,212.789062 
	C387.918884,205.248245 390.681885,201.011139 397.968170,198.764389 
	C402.018860,197.515381 406.435425,196.790085 410.658722,196.901657 
	C419.481293,197.134750 425.088593,202.914871 425.653992,211.773895 
	C425.982635,216.923340 425.901978,222.098892 426.008026,228.211655 
M1368.479492,168.163055 
	C1362.301758,169.448807 1356.064453,170.515549 1349.987549,172.171097 
	C1348.428223,172.595886 1346.351196,174.819641 1346.265259,176.317596 
	C1345.874268,183.123993 1346.087402,189.966476 1346.131348,196.795685 
	C1346.147705,199.324707 1347.245483,200.505981 1349.941406,199.694061 
	C1352.791382,198.835724 1355.649414,197.949783 1358.562134,197.364868 
	C1370.678223,194.931686 1382.871216,193.204620 1395.238647,195.113358 
	C1402.749146,196.272476 1406.871826,201.158905 1407.603271,208.592026 
	C1408.031494,212.943024 1407.229736,214.880478 1402.134033,214.574615 
	C1387.445801,213.692947 1372.819946,214.411591 1358.798706,219.503693 
	C1347.319458,223.672562 1338.714233,230.987793 1336.650024,243.579422 
	C1334.452393,256.985596 1336.345337,269.514099 1347.704956,278.847809 
	C1362.379883,290.905579 1386.537476,291.967834 1402.921265,281.225800 
	C1406.005249,279.203796 1408.891113,276.879395 1412.512329,274.221954 
	C1413.075195,276.660034 1413.732056,278.360962 1413.815186,280.089478 
	C1414.025391,284.465607 1415.922363,286.110718 1420.458008,285.769897 
	C1426.590454,285.308990 1432.780273,285.407776 1438.937744,285.566589 
	C1442.333130,285.654175 1443.651978,284.694214 1443.545532,281.051331 
	C1443.253662,271.064240 1443.461060,261.063568 1443.255981,251.072708 
	C1442.921265,234.772095 1443.132202,218.415817 1441.790894,202.192337 
	C1440.320557,184.409622 1429.835327,173.716934 1412.515869,169.369217 
	C1398.190552,165.773102 1383.822144,166.283005 1368.479492,168.163055 
M1189.303711,246.047577 
	C1190.810059,224.611786 1181.386597,210.513428 1160.651245,204.520905 
	C1161.009766,203.662247 1161.031250,203.466431 1161.140259,203.376190 
	C1161.514526,203.065964 1161.882812,202.709457 1162.318237,202.517609 
	C1172.670288,197.956024 1179.934204,190.470245 1182.611206,179.403275 
	C1186.411621,163.691650 1182.787109,146.124100 1167.720093,136.682083 
	C1160.201050,131.970154 1151.908569,129.437546 1143.146606,129.301575 
	C1121.163330,128.960434 1099.173706,129.023407 1077.186523,128.958755 
	C1076.120728,128.955612 1075.053833,129.281219 1073.987305,129.453735 
	C1073.480713,130.096954 1072.973999,130.740173 1072.467285,131.383392 
	C1074.313965,132.480362 1076.383057,133.324066 1077.968994,134.717651 
	C1085.221558,141.090317 1092.478760,147.471634 1099.433105,154.162827 
	C1102.069946,156.699936 1104.716919,157.712555 1108.287109,157.686630 
	C1116.441162,157.627396 1124.650269,157.389252 1132.739380,158.199219 
	C1142.269043,159.153412 1145.913208,164.014297 1146.270508,173.481140 
	C1146.539062,180.594788 1142.665771,185.219070 1136.302368,189.740723 
	C1142.285156,195.350266 1147.623413,200.569855 1153.212524,205.505371 
	C1155.985352,207.954086 1155.578125,209.606827 1153.099731,211.925049 
	C1149.423950,215.363388 1146.060425,219.135559 1142.454346,222.879395 
	C1143.575439,223.798004 1144.042725,224.280502 1144.597412,224.620377 
	C1152.237549,229.302002 1153.240234,236.590332 1151.581909,244.317291 
	C1150.071655,251.353714 1144.974609,255.587036 1137.888428,256.240143 
	C1128.806763,257.077148 1119.637451,256.929016 1110.537231,257.619507 
	C1107.978027,257.813690 1105.056641,258.901886 1103.115356,260.543030 
	C1096.381592,266.235870 1090.012939,272.359924 1083.490479,278.303558 
	C1081.096558,280.485199 1078.661133,282.621338 1076.244629,284.778229 
	C1076.395752,285.213593 1076.546875,285.648926 1076.697998,286.084290 
	C1078.251831,286.084290 1079.805664,286.084961 1081.359497,286.084167 
	C1097.354858,286.075928 1113.355225,286.301544 1129.343384,285.957092 
	C1136.960938,285.792969 1144.660156,285.099213 1152.140015,283.682220 
	C1174.140015,279.514526 1186.479980,267.016632 1189.303711,246.047577 
M1023.192627,225.315933 
	C1016.021729,221.983185 1009.054138,218.067642 1001.624695,215.475967 
	C993.647461,212.693161 985.213379,211.239532 977.025146,209.033218 
	C973.407715,208.058502 970.555664,205.833282 970.572937,201.756851 
	C970.591125,197.456375 973.936523,195.991135 977.498901,195.103912 
	C979.105530,194.703766 980.754761,194.391327 982.402588,194.253281 
	C995.827148,193.128784 1008.971985,194.821365 1021.941345,198.255814 
	C1023.126953,198.569794 1024.366943,198.678360 1026.142700,198.976547 
	C1026.142700,190.387222 1026.241333,182.424774 1026.017822,174.471375 
	C1025.989868,173.475906 1024.408203,171.921585 1023.295593,171.648361 
	C1002.358704,166.507492 981.272217,164.192017 960.180176,170.462982 
	C939.629395,176.573013 929.992737,196.827591 937.582581,216.353271 
	C942.023193,227.776886 951.194519,233.178146 961.988892,236.410339 
	C971.213318,239.172440 980.733826,240.933624 990.008301,243.546158 
	C994.367737,244.774170 998.572815,246.824387 998.271057,252.657898 
	C998.039978,257.124573 995.407043,260.410492 989.097961,260.645294 
	C978.694763,261.032562 968.207153,260.618988 957.829407,259.702301 
	C950.971313,259.096466 944.243225,257.019775 937.160339,255.539658 
	C937.160339,263.947388 937.018555,272.066467 937.332520,280.167877 
	C937.373657,281.228790 939.621582,282.786346 941.071045,283.108887 
	C947.072937,284.444489 953.139648,285.532928 959.221191,286.458069 
	C974.992493,288.857330 990.801086,289.414551 1006.285339,284.952637 
	C1019.634521,281.105988 1030.077637,273.675415 1033.024170,258.992249 
	C1035.547363,246.418976 1034.142456,234.790375 1023.192627,225.315933 
M542.177734,259.135345 
	C534.004578,256.267120 531.789856,253.595764 531.636414,244.967804 
	C531.378784,230.485397 531.499878,215.996490 531.289673,201.512833 
	C531.240295,198.107773 532.692688,197.228256 535.774170,197.272919 
	C542.765320,197.374283 549.763489,197.364822 556.749084,197.120590 
	C557.991943,197.077148 560.219238,195.717911 560.245483,194.909653 
	C560.507935,186.806961 560.405090,178.692429 560.405090,170.025375 
	C551.973267,170.025375 544.182312,169.879501 536.400940,170.088593 
	C532.661316,170.189056 531.398804,168.845139 531.552551,165.143784 
	C531.849548,157.993668 531.645752,150.823059 531.928101,143.671936 
	C532.065979,140.180710 530.776978,138.853683 527.348022,138.936859 
	C521.024292,139.090256 514.695374,139.041489 508.368652,139.062927 
	C504.298096,139.076736 500.227478,139.065521 495.553162,139.065521 
	C495.553162,146.113571 495.550476,152.246902 495.553741,158.380249 
	C495.559692,169.614151 495.561157,169.614136 484.311096,169.611267 
	C476.118408,169.609177 476.125244,169.609085 476.242645,177.565475 
	C476.272125,179.563034 476.255249,181.561554 476.237732,183.559464 
	C476.115997,197.457596 476.116943,197.618698 489.907318,197.377457 
	C494.167480,197.302933 495.713531,198.286743 495.648224,202.852188 
	C495.417114,218.998016 495.296143,235.159607 495.760254,251.297180 
	C496.210358,266.946838 502.326477,279.226532 518.136719,285.000183 
	C531.158936,289.755646 544.323059,288.563995 557.511536,286.301147 
	C558.549927,286.122925 559.948608,284.063202 560.008118,282.821716 
	C560.334717,276.007172 560.230347,269.173370 560.413330,262.349915 
	C560.491394,259.436615 559.376831,258.665649 556.505859,258.913544 
	C552.042908,259.298950 547.535950,259.174316 542.177734,259.135345 
M1078.176636,264.664093 
	C1097.273438,247.303284 1116.329834,229.897598 1135.507202,212.626160 
	C1138.666260,209.780960 1137.938599,208.023743 1135.178345,205.450150 
	C1110.449097,182.393661 1085.831543,159.217514 1061.169556,136.088806 
	C1058.575684,133.656143 1055.907959,131.302124 1052.602539,128.301514 
	C1052.602539,181.672348 1052.602539,234.019974 1052.602539,287.390533 
	C1061.485229,279.455902 1069.539917,272.260956 1078.176636,264.664093 
M797.532837,198.819763 
	C797.499695,189.994781 797.363464,181.168350 797.485718,172.345535 
	C797.532410,168.975220 796.197388,167.519180 792.909546,167.268906 
	C777.136841,166.068207 763.664307,170.308487 753.844177,183.453094 
	C753.308533,184.170013 752.525391,184.702057 751.007690,186.106537 
	C750.005798,181.415619 748.993774,177.630066 748.440002,173.778625 
	C748.009888,170.786957 746.881104,169.404358 743.656677,169.463043 
	C736.333862,169.596344 729.003418,169.511047 721.680298,169.337479 
	C718.569519,169.263733 717.229370,170.176254 717.242249,173.577194 
	C717.377991,209.542343 717.414307,245.508041 717.365234,281.473450 
	C717.360718,284.776154 718.490234,285.837067 721.730347,285.761414 
	C730.718079,285.551605 739.714661,285.451843 748.701843,285.621429 
	C752.617615,285.695312 753.843079,284.419067 753.810913,280.439789 
	C753.656067,261.293152 753.840332,242.144043 753.832397,222.995850 
	C753.827698,211.797791 757.986938,206.332367 768.708923,203.548843 
	C776.531372,201.518066 785.083496,202.185944 793.318970,201.937302 
	C795.363403,201.875595 797.428711,202.900070 797.532837,198.819763 
M1529.567383,168.212112 
	C1518.650024,170.261276 1510.373901,176.449860 1503.310791,185.280838 
	C1501.815674,181.256683 1500.828857,177.485062 1500.220947,173.653336 
	C1499.737549,170.606522 1498.326782,169.466232 1495.218872,169.530945 
	C1488.065063,169.679886 1480.902466,169.625244 1473.748413,169.447845 
	C1470.629272,169.370499 1469.207520,170.299835 1469.219604,173.660172 
	C1469.348999,209.614883 1469.409790,245.569962 1469.398193,281.524902 
	C1469.397217,284.841675 1470.728638,285.870056 1473.884399,285.806885 
	C1482.537720,285.633606 1491.202271,285.445557 1499.848267,285.717194 
	C1504.563354,285.865326 1505.718750,284.074890 1505.668091,279.613983 
	C1505.447266,260.140564 1505.614136,240.663162 1505.515869,221.187820 
	C1505.477417,213.578217 1508.711182,208.274796 1515.517090,204.843231 
	C1524.930420,200.097015 1534.798950,200.278976 1544.751953,201.944321 
	C1548.077759,202.500809 1549.363525,201.954056 1549.293945,198.422287 
	C1549.123413,189.769043 1549.067993,181.110077 1549.186279,172.456406 
	C1549.230591,169.214523 1547.738647,167.740479 1544.808472,167.726578 
	C1540.012695,167.703812 1535.215698,167.950562 1529.567383,168.212112 
M967.904785,387.567505 
	C969.117188,380.356354 967.291443,374.191833 961.282227,369.729492 
	C966.946289,363.510712 968.466614,356.872192 965.599060,350.699951 
	C962.466614,343.957397 956.509644,341.769745 949.626892,341.693237 
	C939.148682,341.576752 928.667297,341.755005 918.188110,341.687042 
	C915.381165,341.668823 913.880066,342.348419 913.893066,345.564880 
	C913.961609,362.531769 913.808838,379.500061 913.996887,396.464935 
	C914.010803,397.722900 916.082703,400.020752 917.227356,400.039581 
	C929.032898,400.233521 940.860840,400.407166 952.648376,399.855347 
	C959.918823,399.514984 965.649109,395.979645 967.904785,387.567505 
M555.277954,341.577698 
	C547.619385,341.598938 539.943481,341.297668 532.305847,341.708282 
	C516.210754,342.573547 505.194519,355.251709 505.660889,371.909210 
	C506.123901,388.446320 517.508362,400.051453 533.642029,400.272278 
	C542.132141,400.388519 550.627258,400.165710 559.116394,400.312286 
	C562.616943,400.372742 563.789978,399.023529 563.708069,395.590424 
	C563.513428,387.435822 563.500061,379.272583 563.637329,371.116608 
	C563.686646,368.187500 562.903748,366.806885 559.757019,366.898041 
	C552.767578,367.100464 545.770325,367.229187 538.780090,367.126556 
	C535.237000,367.074524 535.212952,369.148346 535.225037,371.667664 
	C535.238159,374.400299 535.412292,376.604034 539.176270,376.400696 
	C543.746826,376.153839 548.340881,376.342102 553.465210,376.342102 
	C553.465210,380.747620 553.696472,384.395966 553.314209,387.978882 
	C553.209290,388.962097 551.296997,390.462402 550.164673,390.508301 
	C543.847656,390.764587 537.506348,390.844086 531.193481,390.549896 
	C528.994812,390.447418 526.635742,389.456665 524.724976,388.268463 
	C517.123230,383.541382 514.133606,373.800842 516.985107,363.912659 
	C519.276550,355.966583 525.743469,351.357758 535.117188,351.224060 
	C542.608521,351.117188 550.105286,351.110779 557.594666,351.279755 
	C560.817322,351.352448 561.824280,350.191681 562.057373,346.968140 
	C562.397278,342.266663 560.317261,341.026367 555.277954,341.577698 
M828.397949,386.022125 
	C833.776917,374.081940 833.746826,362.368439 825.670288,351.708710 
	C817.113220,340.414825 804.839905,339.799835 792.221497,341.837128 
	C780.280396,343.765045 771.894348,352.726990 769.521240,365.283386 
	C767.283081,377.125793 772.617004,390.415741 781.984802,396.264069 
	C790.721130,401.718140 800.236023,401.852844 809.924622,400.062622 
	C818.069824,398.557617 824.208679,394.111542 828.397949,386.022125 
M1218.497070,400.054260 
	C1222.829346,400.046295 1227.172729,399.842468 1231.490723,400.086304 
	C1235.686157,400.323303 1235.396729,397.721008 1235.440063,394.917053 
	C1235.486084,391.925903 1235.277954,389.808380 1231.249146,389.981201 
	C1223.263062,390.323792 1215.257568,390.247131 1207.259888,390.276398 
	C1199.234619,390.305756 1197.897583,388.922974 1197.925415,381.045013 
	C1197.965942,369.547943 1197.810791,358.047058 1198.075073,346.555511 
	C1198.168457,342.488312 1196.670898,341.086609 1192.864746,341.502014 
	C1191.284424,341.674500 1189.690918,341.727570 1187.613525,341.868103 
	C1187.613525,346.844940 1187.585449,351.319641 1187.619263,355.793884 
	C1187.694702,365.789124 1187.412109,375.807770 1188.017578,385.771790 
	C1188.504639,393.788422 1195.165039,399.519379 1203.506348,399.985229 
	C1208.157593,400.244995 1212.834229,400.048096 1218.497070,400.054260 
M660.471375,389.491028 
	C659.475769,386.989624 657.683350,384.508148 657.620178,381.983429 
	C657.320312,370.000275 657.379761,358.003601 657.563110,346.015594 
	C657.618896,342.370178 656.192078,341.424042 652.835266,341.600372 
	C649.713257,341.764374 646.969482,341.297485 647.085205,346.067505 
	C647.380005,358.217590 647.047241,370.382202 647.294983,382.534302 
	C647.524780,393.804504 653.917664,399.911346 665.290955,400.058777 
	C673.283081,400.162415 681.288269,399.774902 689.268188,400.094025 
	C693.719482,400.272095 694.420898,398.391846 694.482849,394.534424 
	C694.549805,390.370331 692.545227,390.062347 689.235413,390.088379 
	C679.926331,390.161621 670.614990,389.945465 660.471375,389.491028 
z"/>
<path fill="#F8F8F7" opacity="1.000000" stroke="none" 
	d="
M1557.968506,226.290710 
	C1558.986572,215.253082 1559.807617,204.613235 1564.989136,194.948013 
	C1573.437500,179.188858 1586.978760,170.415070 1604.323120,168.579193 
	C1614.429443,167.509476 1624.803955,168.976852 1635.057983,169.296860 
	C1635.853638,169.321686 1636.651001,169.300140 1637.877441,169.300140 
	C1637.877441,154.472885 1637.877441,139.866165 1637.877441,124.434677 
	C1642.360718,124.434677 1646.435425,124.432961 1650.510132,124.435081 
	C1656.676270,124.438293 1662.850952,124.640976 1669.005371,124.375443 
	C1672.725586,124.214943 1673.828247,125.376221 1673.822144,129.166458 
	C1673.753296,171.829010 1673.860474,214.491867 1673.931519,257.154633 
	C1673.944824,265.153748 1673.883545,273.156311 1674.108643,281.150177 
	C1674.200684,284.420258 1673.106812,285.599884 1669.827026,285.533905 
	C1663.331421,285.403198 1656.813477,285.327118 1650.336182,285.732330 
	C1646.032104,286.001587 1643.668579,284.860138 1643.486450,280.272491 
	C1643.430908,278.874023 1642.781616,277.499115 1642.294922,275.711792 
	C1638.440552,278.292145 1635.177979,280.799194 1631.630005,282.799927 
	C1606.034424,297.233398 1571.240479,284.140686 1562.510376,256.132660 
	C1559.590820,246.766281 1559.395142,236.550812 1557.968506,226.290710 
M1629.055420,196.273346 
	C1626.059448,196.188995 1623.059692,195.962997 1620.068359,196.045059 
	C1607.853394,196.380142 1599.267334,202.523224 1596.730591,214.502426 
	C1595.176880,221.839294 1595.085571,229.708115 1595.675049,237.233292 
	C1597.214111,256.878906 1612.580078,262.988922 1628.990967,257.790833 
	C1636.227783,255.498581 1637.928833,253.121307 1637.925293,245.659134 
	C1637.918945,232.331711 1637.878906,219.004288 1637.830444,205.676941 
	C1637.801147,197.636765 1637.781982,197.636841 1629.055420,196.273346 
z"/>
<path fill="#F8F8F7" opacity="1.000000" stroke="none" 
	d="
M126.013222,281.245117 
	C117.514763,257.567780 109.113022,234.270538 100.739471,210.963165 
	C92.422180,187.812393 84.128372,164.653183 75.836662,141.493240 
	C74.456535,137.638336 73.139717,133.760788 71.647392,129.473557 
	C73.327888,129.173782 74.404465,128.819305 75.482552,128.814621 
	C85.809700,128.769836 96.138153,128.864838 106.463776,128.730530 
	C109.410065,128.692215 110.845955,129.620544 111.791229,132.568314 
	C120.872971,160.889557 130.145447,189.149551 139.309723,217.444458 
	C141.848099,225.281738 144.208023,233.176819 146.957840,242.037933 
	C147.984543,240.395370 148.704361,239.621902 149.003677,238.710373 
	C160.618835,203.338074 172.160995,167.941681 183.890030,132.607315 
	C184.419250,131.013031 186.565567,128.873779 188.007156,128.835938 
	C199.157776,128.543259 210.320389,128.699844 221.479126,128.750397 
	C221.926208,128.752441 222.371780,129.086487 223.442169,129.516663 
	C220.689301,137.130905 217.963577,144.706482 215.212494,152.272842 
	C205.616470,178.664902 195.962616,205.036057 186.427734,231.450165 
	C180.220840,248.644913 174.238907,265.921143 167.952835,283.086426 
	C167.487152,284.358093 165.393585,285.823578 164.029251,285.851471 
	C152.874176,286.079346 141.707291,286.152649 130.559128,285.797668 
	C129.037399,285.749237 127.599182,283.077789 126.013222,281.245117 
z"/>
<path fill="#F9F9F8" opacity="1.000000" stroke="none" 
	d="
M1233.701416,283.249298 
	C1218.330200,276.100586 1207.661743,264.990173 1203.941650,248.717728 
	C1198.584229,225.283218 1199.294067,202.510284 1216.834106,183.588928 
	C1230.715576,168.614334 1248.943848,165.900650 1268.185425,167.101761 
	C1289.342529,168.422409 1305.984619,177.549988 1315.723022,196.772339 
	C1323.445190,212.014725 1324.014160,228.378433 1320.654785,244.985596 
	C1317.059570,262.758942 1307.088257,275.569000 1290.504517,282.708374 
	C1271.903809,290.716034 1252.958008,290.349396 1233.701416,283.249298 
M1285.787598,228.460770 
	C1285.381836,223.661255 1285.303223,218.806564 1284.504639,214.073334 
	C1282.656006,203.117203 1275.351929,196.407303 1264.821533,195.496445 
	C1251.953491,194.383377 1244.289062,198.876419 1240.328613,210.197708 
	C1236.235107,221.899002 1236.550171,233.796661 1240.163086,245.474548 
	C1242.599731,253.350616 1248.253540,258.472412 1256.649414,259.427643 
	C1265.667603,260.453644 1274.330078,259.813202 1280.219727,251.261887 
	C1284.793213,244.621857 1285.444458,237.066864 1285.787598,228.460770 
z"/>
<path fill="#F8F8F7" opacity="1.000000" stroke="none" 
	d="
M843.414490,238.945953 
	C841.874634,246.385437 850.203247,256.291534 859.807190,258.879395 
	C872.760071,262.369690 885.577209,260.317902 898.391235,258.255890 
	C902.779358,257.549774 907.075134,256.269928 911.922668,255.132645 
	C912.157166,256.545013 912.518188,257.758850 912.532166,258.976685 
	C912.582031,263.304840 912.515991,267.634399 912.489563,271.963409 
	C912.423828,282.707947 914.446106,280.987823 903.546936,283.787262 
	C889.648376,287.357208 875.422913,289.229767 861.008850,288.014343 
	C825.128784,284.988861 803.268433,258.987396 806.029175,222.978729 
	C807.013123,210.144684 809.794861,198.053970 817.987732,187.653000 
	C829.612671,172.895035 845.314209,167.146118 863.457092,166.764252 
	C875.978149,166.500702 888.054077,168.511032 898.664429,175.658936 
	C913.172668,185.432861 918.183228,200.293869 919.692444,216.743805 
	C920.192627,222.195923 919.762695,227.727356 919.961914,233.215118 
	C920.101501,237.058609 918.638367,238.387222 914.686218,238.361191 
	C892.874756,238.217575 871.061707,238.322372 849.249146,238.366714 
	C847.426331,238.370422 845.603943,238.556961 843.414490,238.945953 
M848.673645,214.790283 
	C859.335999,214.811066 869.998413,214.826508 880.660767,214.856964 
	C882.872498,214.863281 885.641174,215.072525 884.881470,211.767258 
	C883.967163,207.789505 883.198730,203.279633 880.796631,200.242111 
	C875.089478,193.025330 866.869812,192.513580 858.479675,194.394653 
	C850.602417,196.160736 845.090515,200.686188 843.002014,208.798309 
	C841.436340,214.879486 841.418518,214.874893 848.673645,214.790283 
z"/>
<path fill="#F8F8F7" opacity="1.000000" stroke="none" 
	d="
M231.821350,269.176208 
	C219.749588,255.082748 217.033249,238.647827 218.097549,221.201279 
	C219.040726,205.740341 223.865158,192.011505 235.709518,181.221161 
	C248.548325,169.524857 263.981354,166.527206 280.575378,167.006516 
	C296.592987,167.469193 310.617920,172.351562 320.781799,185.528946 
	C328.081146,194.992493 330.773926,206.053360 331.507568,217.682800 
	C331.832184,222.828522 331.379944,228.020996 331.645416,233.173431 
	C331.862030,237.377838 330.208435,238.555786 326.112183,238.526291 
	C304.282715,238.369034 282.451324,238.476562 260.620605,238.493179 
	C254.117554,238.498123 253.212936,239.947662 256.081726,245.727188 
	C259.805786,253.229721 265.803619,257.792114 273.992218,259.388306 
	C289.432190,262.398041 304.475006,259.796753 319.421051,256.015045 
	C320.668091,255.699524 321.914886,255.383026 324.116608,254.824936 
	C324.116608,263.431152 324.200317,271.498932 323.995880,279.559418 
	C323.973816,280.430573 322.411316,281.756653 321.345276,282.034332 
	C300.221161,287.536224 278.969635,291.340729 257.338928,284.874115 
	C247.604858,281.964081 239.092819,276.864075 231.821350,269.176208 
M275.060516,193.852661 
	C263.626801,194.603226 256.922638,200.192963 254.449448,210.634399 
	C253.621704,214.129059 254.685104,215.167526 258.069946,215.019531 
	C262.727448,214.815887 267.397247,214.871475 272.061890,214.860199 
	C280.176056,214.840561 288.290253,214.854736 296.313965,214.854736 
	C298.163055,203.402802 290.130127,192.964203 275.060516,193.852661 
z"/>
<path fill="#F8F8F7" opacity="1.000000" stroke="none" 
	d="
M653.171265,180.065109 
	C653.186462,169.621765 653.186462,169.630249 663.239563,169.651306 
	C670.405701,169.666306 677.575928,169.797623 684.736267,169.594376 
	C688.299805,169.493210 689.733032,170.457993 689.717407,174.337631 
	C689.574341,209.833633 689.556702,245.330582 689.680786,280.826630 
	C689.694275,284.688171 688.357788,285.692993 684.759277,285.610596 
	C677.765259,285.450531 670.752197,285.467590 663.767456,285.817596 
	C660.047913,286.003998 658.655151,284.625061 658.449219,281.094208 
	C658.316956,278.826538 657.631592,276.591156 656.988770,273.284973 
	C655.232239,274.669647 654.087524,275.398621 653.151184,276.335815 
	C637.348572,292.153595 605.670471,292.772705 589.572205,277.567963 
	C582.353210,270.749603 579.080078,261.875183 578.869080,252.465271 
	C578.275208,225.982010 578.502869,199.480652 578.342407,172.986816 
	C578.325989,170.273941 579.586792,169.578873 582.022400,169.604446 
	C591.520874,169.704193 601.021667,169.798065 610.519043,169.683228 
	C614.363037,169.636765 614.712036,171.677902 614.700684,174.770187 
	C614.623962,195.601471 614.677063,216.433243 614.690369,237.264847 
	C614.690857,238.098022 614.706360,238.931412 614.727722,239.764359 
	C615.004578,250.548828 617.598511,255.297272 624.433960,257.538483 
	C634.028076,260.684204 646.918579,257.383545 651.716248,250.201462 
	C652.798218,248.581741 652.959778,246.123627 652.972839,244.047882 
	C653.105896,222.883423 653.120544,201.718201 653.171265,180.065109 
z"/>
<path fill="#F7F7F6" opacity="1.000000" stroke="none" 
	d="
M426.006775,227.737183 
	C425.901978,222.098892 425.982635,216.923340 425.653992,211.773895 
	C425.088593,202.914871 419.481293,197.134750 410.658722,196.901657 
	C406.435425,196.790085 402.018860,197.515381 397.968170,198.764389 
	C390.681885,201.011139 387.918884,205.248245 387.928802,212.789062 
	C387.958374,235.284912 387.928619,257.781891 388.179779,280.275513 
	C388.226166,284.431213 387.059265,285.821198 382.876984,285.716278 
	C374.052002,285.494873 365.212433,285.606506 356.385620,285.838593 
	C353.160156,285.923431 351.970581,284.979034 351.974640,281.642639 
	C352.018402,245.816132 351.994568,209.989243 351.827850,174.163208 
	C351.809875,170.293152 353.202301,169.335281 356.801910,169.471695 
	C363.457855,169.723953 370.143402,169.820511 376.789917,169.472382 
	C381.121002,169.245514 382.866608,170.929733 383.124084,175.023376 
	C383.232330,176.744659 383.865631,178.432922 384.315948,180.376450 
	C390.006714,176.881577 394.897980,173.174866 400.342285,170.670242 
	C414.833344,164.003677 441.556305,164.307724 453.578552,180.398392 
	C459.380035,188.163132 461.987946,197.072525 462.080536,206.547134 
	C462.326416,231.706711 462.167816,256.870026 462.269653,282.031464 
	C462.281433,284.940948 461.102264,285.788147 458.403198,285.764862 
	C449.072205,285.684357 439.737335,285.611572 430.409546,285.806000 
	C426.413116,285.889282 426.296082,283.663513 426.289398,280.700134 
	C426.250061,263.203857 426.112518,245.707794 426.006775,227.737183 
z"/>
<path fill="#F8F8F7" opacity="1.000000" stroke="none" 
	d="
M1368.927979,168.116745 
	C1383.822144,166.283005 1398.190552,165.773102 1412.515869,169.369217 
	C1429.835327,173.716934 1440.320557,184.409622 1441.790894,202.192337 
	C1443.132202,218.415817 1442.921265,234.772095 1443.255981,251.072708 
	C1443.461060,261.063568 1443.253662,271.064240 1443.545532,281.051331 
	C1443.651978,284.694214 1442.333130,285.654175 1438.937744,285.566589 
	C1432.780273,285.407776 1426.590454,285.308990 1420.458008,285.769897 
	C1415.922363,286.110718 1414.025391,284.465607 1413.815186,280.089478 
	C1413.732056,278.360962 1413.075195,276.660034 1412.512329,274.221954 
	C1408.891113,276.879395 1406.005249,279.203796 1402.921265,281.225800 
	C1386.537476,291.967834 1362.379883,290.905579 1347.704956,278.847809 
	C1336.345337,269.514099 1334.452393,256.985596 1336.650024,243.579422 
	C1338.714233,230.987793 1347.319458,223.672562 1358.798706,219.503693 
	C1372.819946,214.411591 1387.445801,213.692947 1402.134033,214.574615 
	C1407.229736,214.880478 1408.031494,212.943024 1407.603271,208.592026 
	C1406.871826,201.158905 1402.749146,196.272476 1395.238647,195.113358 
	C1382.871216,193.204620 1370.678223,194.931686 1358.562134,197.364868 
	C1355.649414,197.949783 1352.791382,198.835724 1349.941406,199.694061 
	C1347.245483,200.505981 1346.147705,199.324707 1346.131348,196.795685 
	C1346.087402,189.966476 1345.874268,183.123993 1346.265259,176.317596 
	C1346.351196,174.819641 1348.428223,172.595886 1349.987549,172.171097 
	C1356.064453,170.515549 1362.301758,169.448807 1368.927979,168.116745 
M1394.523926,236.327591 
	C1390.079834,236.737900 1385.534302,236.695038 1381.214844,237.662033 
	C1374.293091,239.211548 1370.851929,244.268768 1371.252197,251.100296 
	C1371.614258,257.281036 1375.465942,261.281311 1382.489258,262.340027 
	C1391.337891,263.673828 1399.193237,261.030090 1406.216431,255.731644 
	C1407.026245,255.120819 1407.788574,253.872421 1407.817505,252.897217 
	C1407.973633,247.637070 1407.891479,242.369827 1407.891479,236.316956 
	C1403.386230,236.316956 1399.442383,236.316956 1394.523926,236.327591 
z"/>
<path fill="#F7F7F6" opacity="1.000000" stroke="none" 
	d="
M1189.257202,246.491302 
	C1186.479980,267.016632 1174.140015,279.514526 1152.140015,283.682220 
	C1144.660156,285.099213 1136.960938,285.792969 1129.343384,285.957092 
	C1113.355225,286.301544 1097.354858,286.075928 1081.359497,286.084167 
	C1079.805664,286.084961 1078.251831,286.084290 1076.697998,286.084290 
	C1076.546875,285.648926 1076.395752,285.213593 1076.244629,284.778229 
	C1078.661133,282.621338 1081.096558,280.485199 1083.490479,278.303558 
	C1090.012939,272.359924 1096.381592,266.235870 1103.115356,260.543030 
	C1105.056641,258.901886 1107.978027,257.813690 1110.537231,257.619507 
	C1119.637451,256.929016 1128.806763,257.077148 1137.888428,256.240143 
	C1144.974609,255.587036 1150.071655,251.353714 1151.581909,244.317291 
	C1153.240234,236.590332 1152.237549,229.302002 1144.597412,224.620377 
	C1144.042725,224.280502 1143.575439,223.798004 1142.454346,222.879395 
	C1146.060425,219.135559 1149.423950,215.363388 1153.099731,211.925049 
	C1155.578125,209.606827 1155.985352,207.954086 1153.212524,205.505371 
	C1147.623413,200.569855 1142.285156,195.350266 1136.302368,189.740723 
	C1142.665771,185.219070 1146.539062,180.594788 1146.270508,173.481140 
	C1145.913208,164.014297 1142.269043,159.153412 1132.739380,158.199219 
	C1124.650269,157.389252 1116.441162,157.627396 1108.287109,157.686630 
	C1104.716919,157.712555 1102.069946,156.699936 1099.433105,154.162827 
	C1092.478760,147.471634 1085.221558,141.090317 1077.968994,134.717651 
	C1076.383057,133.324066 1074.313965,132.480362 1072.467285,131.383392 
	C1072.973999,130.740173 1073.480713,130.096954 1073.987305,129.453735 
	C1075.053833,129.281219 1076.120728,128.955612 1077.186523,128.958755 
	C1099.173706,129.023407 1121.163330,128.960434 1143.146606,129.301575 
	C1151.908569,129.437546 1160.201050,131.970154 1167.720093,136.682083 
	C1182.787109,146.124100 1186.411621,163.691650 1182.611206,179.403275 
	C1179.934204,190.470245 1172.670288,197.956024 1162.318237,202.517609 
	C1161.882812,202.709457 1161.514526,203.065964 1161.140259,203.376190 
	C1161.031250,203.466431 1161.009766,203.662247 1160.651245,204.520905 
	C1181.386597,210.513428 1190.810059,224.611786 1189.257202,246.491302 
z"/>
<path fill="#F7F7F7" opacity="1.000000" stroke="none" 
	d="
M1023.478394,225.526810 
	C1034.142456,234.790375 1035.547363,246.418976 1033.024170,258.992249 
	C1030.077637,273.675415 1019.634521,281.105988 1006.285339,284.952637 
	C990.801086,289.414551 974.992493,288.857330 959.221191,286.458069 
	C953.139648,285.532928 947.072937,284.444489 941.071045,283.108887 
	C939.621582,282.786346 937.373657,281.228790 937.332520,280.167877 
	C937.018555,272.066467 937.160339,263.947388 937.160339,255.539658 
	C944.243225,257.019775 950.971313,259.096466 957.829407,259.702301 
	C968.207153,260.618988 978.694763,261.032562 989.097961,260.645294 
	C995.407043,260.410492 998.039978,257.124573 998.271057,252.657898 
	C998.572815,246.824387 994.367737,244.774170 990.008301,243.546158 
	C980.733826,240.933624 971.213318,239.172440 961.988892,236.410339 
	C951.194519,233.178146 942.023193,227.776886 937.582581,216.353271 
	C929.992737,196.827591 939.629395,176.573013 960.180176,170.462982 
	C981.272217,164.192017 1002.358704,166.507492 1023.295593,171.648361 
	C1024.408203,171.921585 1025.989868,173.475906 1026.017822,174.471375 
	C1026.241333,182.424774 1026.142700,190.387222 1026.142700,198.976547 
	C1024.366943,198.678360 1023.126953,198.569794 1021.941345,198.255814 
	C1008.971985,194.821365 995.827148,193.128784 982.402588,194.253281 
	C980.754761,194.391327 979.105530,194.703766 977.498901,195.103912 
	C973.936523,195.991135 970.591125,197.456375 970.572937,201.756851 
	C970.555664,205.833282 973.407715,208.058502 977.025146,209.033218 
	C985.213379,211.239532 993.647461,212.693161 1001.624695,215.475967 
	C1009.054138,218.067642 1016.021729,221.983185 1023.478394,225.526810 
z"/>
<path fill="#F8F8F7" opacity="1.000000" stroke="none" 
	d="
M542.612671,259.200623 
	C547.535950,259.174316 552.042908,259.298950 556.505859,258.913544 
	C559.376831,258.665649 560.491394,259.436615 560.413330,262.349915 
	C560.230347,269.173370 560.334717,276.007172 560.008118,282.821716 
	C559.948608,284.063202 558.549927,286.122925 557.511536,286.301147 
	C544.323059,288.563995 531.158936,289.755646 518.136719,285.000183 
	C502.326477,279.226532 496.210358,266.946838 495.760254,251.297180 
	C495.296143,235.159607 495.417114,218.998016 495.648224,202.852188 
	C495.713531,198.286743 494.167480,197.302933 489.907318,197.377457 
	C476.116943,197.618698 476.115997,197.457596 476.237732,183.559464 
	C476.255249,181.561554 476.272125,179.563034 476.242645,177.565475 
	C476.125244,169.609085 476.118408,169.609177 484.311096,169.611267 
	C495.561157,169.614136 495.559692,169.614151 495.553741,158.380249 
	C495.550476,152.246902 495.553162,146.113571 495.553162,139.065521 
	C500.227478,139.065521 504.298096,139.076736 508.368652,139.062927 
	C514.695374,139.041489 521.024292,139.090256 527.348022,138.936859 
	C530.776978,138.853683 532.065979,140.180710 531.928101,143.671936 
	C531.645752,150.823059 531.849548,157.993668 531.552551,165.143784 
	C531.398804,168.845139 532.661316,170.189056 536.400940,170.088593 
	C544.182312,169.879501 551.973267,170.025375 560.405090,170.025375 
	C560.405090,178.692429 560.507935,186.806961 560.245483,194.909653 
	C560.219238,195.717911 557.991943,197.077148 556.749084,197.120590 
	C549.763489,197.364822 542.765320,197.374283 535.774170,197.272919 
	C532.692688,197.228256 531.240295,198.107773 531.289673,201.512833 
	C531.499878,215.996490 531.378784,230.485397 531.636414,244.967804 
	C531.789856,253.595764 534.004578,256.267120 542.612671,259.200623 
z"/>
<path fill="#DA202A" opacity="1.000000" stroke="none" 
	d="
M1077.885620,264.865051 
	C1069.539917,272.260956 1061.485229,279.455902 1052.602539,287.390533 
	C1052.602539,234.019974 1052.602539,181.672348 1052.602539,128.301514 
	C1055.907959,131.302124 1058.575684,133.656143 1061.169556,136.088806 
	C1085.831543,159.217514 1110.449097,182.393661 1135.178345,205.450150 
	C1137.938599,208.023743 1138.666260,209.780960 1135.507202,212.626160 
	C1116.329834,229.897598 1097.273438,247.303284 1077.885620,264.865051 
z"/>
<path fill="#F6F6F5" opacity="1.000000" stroke="none" 
	d="
M797.531128,199.239929 
	C797.428711,202.900070 795.363403,201.875595 793.318970,201.937302 
	C785.083496,202.185944 776.531372,201.518066 768.708923,203.548843 
	C757.986938,206.332367 753.827698,211.797791 753.832397,222.995850 
	C753.840332,242.144043 753.656067,261.293152 753.810913,280.439789 
	C753.843079,284.419067 752.617615,285.695312 748.701843,285.621429 
	C739.714661,285.451843 730.718079,285.551605 721.730347,285.761414 
	C718.490234,285.837067 717.360718,284.776154 717.365234,281.473450 
	C717.414307,245.508041 717.377991,209.542343 717.242249,173.577194 
	C717.229370,170.176254 718.569519,169.263733 721.680298,169.337479 
	C729.003418,169.511047 736.333862,169.596344 743.656677,169.463043 
	C746.881104,169.404358 748.009888,170.786957 748.440002,173.778625 
	C748.993774,177.630066 750.005798,181.415619 751.007690,186.106537 
	C752.525391,184.702057 753.308533,184.170013 753.844177,183.453094 
	C763.664307,170.308487 777.136841,166.068207 792.909546,167.268906 
	C796.197388,167.519180 797.532410,168.975220 797.485718,172.345535 
	C797.363464,181.168350 797.499695,189.994781 797.531128,199.239929 
z"/>
<path fill="#F6F6F6" opacity="1.000000" stroke="none" 
	d="
M1529.993286,168.147888 
	C1535.215698,167.950562 1540.012695,167.703812 1544.808472,167.726578 
	C1547.738647,167.740479 1549.230591,169.214523 1549.186279,172.456406 
	C1549.067993,181.110077 1549.123413,189.769043 1549.293945,198.422287 
	C1549.363525,201.954056 1548.077759,202.500809 1544.751953,201.944321 
	C1534.798950,200.278976 1524.930420,200.097015 1515.517090,204.843231 
	C1508.711182,208.274796 1505.477417,213.578217 1505.515869,221.187820 
	C1505.614136,240.663162 1505.447266,260.140564 1505.668091,279.613983 
	C1505.718750,284.074890 1504.563354,285.865326 1499.848267,285.717194 
	C1491.202271,285.445557 1482.537720,285.633606 1473.884399,285.806885 
	C1470.728638,285.870056 1469.397217,284.841675 1469.398193,281.524902 
	C1469.409790,245.569962 1469.348999,209.614883 1469.219604,173.660172 
	C1469.207520,170.299835 1470.629272,169.370499 1473.748413,169.447845 
	C1480.902466,169.625244 1488.065063,169.679886 1495.218872,169.530945 
	C1498.326782,169.466232 1499.737549,170.606522 1500.220947,173.653336 
	C1500.828857,177.485062 1501.815674,181.256683 1503.310791,185.280838 
	C1510.373901,176.449860 1518.650024,170.261276 1529.993286,168.147888 
z"/>
<path fill="#E9E9E9" opacity="1.000000" stroke="none" 
	d="
M967.867798,387.958008 
	C965.649109,395.979645 959.918823,399.514984 952.648376,399.855347 
	C940.860840,400.407166 929.032898,400.233521 917.227356,400.039581 
	C916.082703,400.020752 914.010803,397.722900 913.996887,396.464935 
	C913.808838,379.500061 913.961609,362.531769 913.893066,345.564880 
	C913.880066,342.348419 915.381165,341.668823 918.188110,341.687042 
	C928.667297,341.755005 939.148682,341.576752 949.626892,341.693237 
	C956.509644,341.769745 962.466614,343.957397 965.599060,350.699951 
	C968.466614,356.872192 966.946289,363.510712 961.282227,369.729492 
	C967.291443,374.191833 969.117188,380.356354 967.867798,387.958008 
M925.980347,390.241333 
	C934.081543,390.335785 942.183167,390.402740 950.283752,390.536865 
	C954.099609,390.600067 956.794556,388.699860 957.877075,385.317841 
	C959.008118,381.784119 958.291687,378.401062 953.976440,375.867615 
	C947.195374,375.582275 940.416077,375.241119 933.632507,375.037079 
	C930.612976,374.946228 927.816772,375.587250 927.727478,370.732117 
	C927.632812,365.587982 930.616028,366.092010 933.843628,366.096527 
	C938.504517,366.103027 943.166260,366.076477 947.826294,365.992615 
	C954.269653,365.876678 956.979309,363.478668 956.890991,358.076813 
	C956.811523,353.215515 953.939819,350.868225 947.651917,350.803802 
	C941.327393,350.739014 934.996643,351.006348 928.677185,350.827209 
	C925.382935,350.733795 924.311951,351.920380 924.351501,355.146210 
	C924.477844,365.463379 924.342834,375.783539 924.408569,386.101929 
	C924.416321,387.316010 925.044250,388.526123 925.980347,390.241333 
z"/>
<path fill="#E8E8E8" opacity="1.000000" stroke="none" 
	d="
M555.741089,341.578796 
	C560.317261,341.026367 562.397278,342.266663 562.057373,346.968140 
	C561.824280,350.191681 560.817322,351.352448 557.594666,351.279755 
	C550.105286,351.110779 542.608521,351.117188 535.117188,351.224060 
	C525.743469,351.357758 519.276550,355.966583 516.985107,363.912659 
	C514.133606,373.800842 517.123230,383.541382 524.724976,388.268463 
	C526.635742,389.456665 528.994812,390.447418 531.193481,390.549896 
	C537.506348,390.844086 543.847656,390.764587 550.164673,390.508301 
	C551.296997,390.462402 553.209290,388.962097 553.314209,387.978882 
	C553.696472,384.395966 553.465210,380.747620 553.465210,376.342102 
	C548.340881,376.342102 543.746826,376.153839 539.176270,376.400696 
	C535.412292,376.604034 535.238159,374.400299 535.225037,371.667664 
	C535.212952,369.148346 535.237000,367.074524 538.780090,367.126556 
	C545.770325,367.229187 552.767578,367.100464 559.757019,366.898041 
	C562.903748,366.806885 563.686646,368.187500 563.637329,371.116608 
	C563.500061,379.272583 563.513428,387.435822 563.708069,395.590424 
	C563.789978,399.023529 562.616943,400.372742 559.116394,400.312286 
	C550.627258,400.165710 542.132141,400.388519 533.642029,400.272278 
	C517.508362,400.051453 506.123901,388.446320 505.660889,371.909210 
	C505.194519,355.251709 516.210754,342.573547 532.305847,341.708282 
	C539.943481,341.297668 547.619385,341.598938 555.741089,341.578796 
z"/>
<path fill="#E8E9E8" opacity="1.000000" stroke="none" 
	d="
M828.231201,386.351685 
	C824.208679,394.111542 818.069824,398.557617 809.924622,400.062622 
	C800.236023,401.852844 790.721130,401.718140 781.984802,396.264069 
	C772.617004,390.415741 767.283081,377.125793 769.521240,365.283386 
	C771.894348,352.726990 780.280396,343.765045 792.221497,341.837128 
	C804.839905,339.799835 817.113220,340.414825 825.670288,351.708710 
	C833.746826,362.368439 833.776917,374.081940 828.231201,386.351685 
M779.850708,367.889343 
	C779.835938,370.045807 779.628418,372.221405 779.840027,374.355408 
	C780.746216,383.495392 786.997131,390.000336 796.005371,391.349884 
	C807.389709,393.055420 816.335449,389.186859 819.718811,380.396484 
	C822.876160,372.193146 822.613159,363.793762 816.812012,356.826355 
	C810.761719,349.559662 802.203796,349.561829 793.821533,351.392029 
	C785.653748,353.175354 781.152954,358.765472 779.850708,367.889343 
z"/>
<path fill="#E8E8E8" opacity="1.000000" stroke="none" 
	d="
M1080.017578,341.935547 
	C1080.539429,342.512024 1081.061279,343.088531 1081.826904,344.178375 
	C1084.820190,349.697937 1087.569702,354.704102 1090.319214,359.710266 
	C1090.390625,360.043457 1090.462158,360.376648 1090.736084,361.212189 
	C1091.950317,363.478516 1092.962158,365.242462 1093.973999,367.006409 
	C1094.143311,367.565887 1094.312622,368.125336 1094.694092,369.147827 
	C1095.261841,370.076050 1095.617432,370.541290 1095.972900,371.006500 
	C1096.174561,371.557007 1096.376221,372.107483 1096.818726,373.169128 
	C1100.361816,379.789490 1103.663940,385.898712 1106.966187,392.007904 
	C1107.167114,392.545349 1107.368042,393.082825 1107.814453,394.209167 
	C1108.426025,396.084229 1108.791870,397.370392 1109.178223,398.728394 
	C1100.038574,400.180450 1099.897339,400.070099 1096.394897,392.964264 
	C1095.628296,391.408966 1094.442139,390.060547 1093.449219,388.616882 
	C1093.449219,388.616852 1093.329834,388.670685 1093.185059,388.257812 
	C1083.712891,387.844910 1074.385498,387.844910 1064.784302,387.844910 
	C1067.171387,378.469879 1067.261963,378.393250 1075.208008,378.381927 
	C1079.230835,378.376190 1083.253540,378.380920 1088.503174,378.380920 
	C1084.220459,370.154846 1080.650635,363.298035 1076.417603,355.167267 
	C1073.130737,361.639160 1070.646362,366.462341 1068.224121,371.316589 
	C1064.457275,378.865601 1060.732666,386.435699 1056.990112,393.996857 
	C1056.990112,393.996857 1056.691528,394.137177 1056.329834,394.436523 
	C1055.402710,395.714691 1055.027588,397.319305 1054.237671,397.559479 
	C1051.458130,398.404510 1048.548828,398.927887 1045.654663,399.176727 
	C1045.219727,399.214111 1044.603027,397.135742 1044.070435,396.036102 
	C1044.554443,395.452118 1045.038452,394.868134 1045.845337,393.800842 
	C1051.112915,383.545227 1056.057617,373.772949 1061.002319,364.000671 
	C1061.234375,363.753204 1061.466553,363.505768 1062.001343,362.798645 
	C1062.861938,360.890381 1063.419800,359.441833 1063.977661,357.993286 
	C1064.202271,357.744385 1064.426880,357.495544 1064.958862,356.794250 
	C1066.919434,353.315277 1068.779907,350.380859 1070.176025,347.240051 
	C1072.145020,342.809875 1075.347656,341.126465 1080.017578,341.935547 
z"/>
<path fill="#E5E6E6" opacity="1.000000" stroke="none" 
	d="
M1217.998291,400.055603 
	C1212.834229,400.048096 1208.157593,400.244995 1203.506348,399.985229 
	C1195.165039,399.519379 1188.504639,393.788422 1188.017578,385.771790 
	C1187.412109,375.807770 1187.694702,365.789124 1187.619263,355.793884 
	C1187.585449,351.319641 1187.613525,346.844940 1187.613525,341.868103 
	C1189.690918,341.727570 1191.284424,341.674500 1192.864746,341.502014 
	C1196.670898,341.086609 1198.168457,342.488312 1198.075073,346.555511 
	C1197.810791,358.047058 1197.965942,369.547943 1197.925415,381.045013 
	C1197.897583,388.922974 1199.234619,390.305756 1207.259888,390.276398 
	C1215.257568,390.247131 1223.263062,390.323792 1231.249146,389.981201 
	C1235.277954,389.808380 1235.486084,391.925903 1235.440063,394.917053 
	C1235.396729,397.721008 1235.686157,400.323303 1231.490723,400.086304 
	C1227.172729,399.842468 1222.829346,400.046295 1217.998291,400.055603 
z"/>
<path fill="#E5E6E6" opacity="1.000000" stroke="none" 
	d="
M660.887939,389.667236 
	C670.614990,389.945465 679.926331,390.161621 689.235413,390.088379 
	C692.545227,390.062347 694.549805,390.370331 694.482849,394.534424 
	C694.420898,398.391846 693.719482,400.272095 689.268188,400.094025 
	C681.288269,399.774902 673.283081,400.162415 665.290955,400.058777 
	C653.917664,399.911346 647.524780,393.804504 647.294983,382.534302 
	C647.047241,370.382202 647.380005,358.217590 647.085205,346.067505 
	C646.969482,341.297485 649.713257,341.764374 652.835266,341.600372 
	C656.192078,341.424042 657.618896,342.370178 657.563110,346.015594 
	C657.379761,358.003601 657.320312,370.000275 657.620178,381.983429 
	C657.683350,384.508148 659.475769,386.989624 660.887939,389.667236 
z"/>
<path fill="#2E2F2F" opacity="1.000000" stroke="none" 
	d="
M1057.336670,393.983246 
	C1060.732666,386.435699 1064.457275,378.865601 1068.224121,371.316589 
	C1070.646362,366.462341 1073.130737,361.639160 1076.417603,355.167267 
	C1080.650635,363.298035 1084.220459,370.154846 1088.503174,378.380920 
	C1083.253540,378.380920 1079.230835,378.376190 1075.208008,378.381927 
	C1067.261963,378.393250 1067.171387,378.469879 1064.784302,387.844910 
	C1074.385498,387.844910 1083.712891,387.844910 1093.216064,388.200134 
	C1082.991943,388.359192 1072.513550,391.215759 1061.391968,388.687927 
	C1060.626343,389.778412 1059.154907,391.874023 1057.336670,393.983246 
z"/>
<path fill="#2E2F2F" opacity="1.000000" stroke="none" 
	d="
M1060.652344,364.013733 
	C1056.057617,373.772949 1051.112915,383.545227 1045.881226,393.510986 
	C1045.756104,392.452972 1045.577148,391.019257 1046.133545,389.978607 
	C1050.779907,381.287048 1055.561523,372.667847 1060.652344,364.013733 
z"/>
<path fill="#2E2F2F" opacity="1.000000" stroke="none" 
	d="
M1093.302979,388.990448 
	C1094.442139,390.060547 1095.628296,391.408966 1096.394897,392.964264 
	C1099.897339,400.070099 1100.038574,400.180450 1109.178223,398.728394 
	C1108.791870,397.370392 1108.426025,396.084229 1108.043701,394.392578 
	C1108.982178,395.847931 1109.937012,397.708710 1110.891846,399.569458 
	C1109.277832,400.054077 1107.674316,400.915039 1106.048096,400.960632 
	C1097.251831,401.207245 1095.965454,399.976196 1093.302979,388.990448 
z"/>
<path fill="#2E2F2F" opacity="1.000000" stroke="none" 
	d="
M1079.960449,341.568298 
	C1075.347656,341.126465 1072.145020,342.809875 1070.176025,347.240051 
	C1068.779907,350.380859 1066.919434,353.315277 1064.985596,356.538330 
	C1065.452881,350.396179 1068.234741,344.981598 1073.228394,341.169769 
	C1074.629150,340.100433 1077.634277,341.132751 1079.960449,341.568298 
z"/>
<path fill="#2E2F2F" opacity="1.000000" stroke="none" 
	d="
M1043.685791,396.074341 
	C1044.603027,397.135742 1045.219727,399.214111 1045.654663,399.176727 
	C1048.548828,398.927887 1051.458130,398.404510 1054.237671,397.559479 
	C1055.027588,397.319305 1055.402710,395.714691 1056.320801,394.601196 
	C1055.925659,400.060394 1047.583984,403.959900 1043.156372,400.554810 
	C1042.471191,400.027832 1043.217163,397.639893 1043.685791,396.074341 
z"/>
<path fill="#2E2F2F" opacity="1.000000" stroke="none" 
	d="
M1107.219482,391.816956 
	C1103.663940,385.898712 1100.361816,379.789490 1097.084229,373.315521 
	C1098.503906,374.814148 1100.168213,376.536011 1101.238403,378.570312 
	C1103.482056,382.835114 1105.413208,387.264313 1107.219482,391.816956 
z"/>
<path fill="#2E2F2F" opacity="1.000000" stroke="none" 
	d="
M1090.503296,359.340576 
	C1087.569702,354.704102 1084.820190,349.697937 1082.074951,344.334076 
	C1087.261597,347.646790 1088.822876,353.395874 1090.503296,359.340576 
z"/>
<path fill="#2E2F2F" opacity="1.000000" stroke="none" 
	d="
M1094.247559,366.815308 
	C1092.962158,365.242462 1091.950317,363.478516 1090.949219,361.363739 
	C1092.147095,362.883331 1093.334106,364.753784 1094.247559,366.815308 
z"/>
<path fill="#2E2F2F" opacity="1.000000" stroke="none" 
	d="
M1063.600586,358.030609 
	C1063.419800,359.441833 1062.861938,360.890381 1062.033203,362.539551 
	C1062.249390,361.182739 1062.736328,359.625336 1063.600586,358.030609 
z"/>
<path fill="#2E2F2F" opacity="1.000000" stroke="none" 
	d="
M1096.214966,370.852112 
	C1095.617432,370.541290 1095.261841,370.076050 1094.949463,369.307343 
	C1095.480713,369.568451 1095.968872,370.133057 1096.214966,370.852112 
z"/>
<path fill="#0A0A0A" opacity="1.000000" stroke="none" 
	d="
M1629.502441,196.304688 
	C1637.781982,197.636841 1637.801147,197.636765 1637.830444,205.676941 
	C1637.878906,219.004288 1637.918945,232.331711 1637.925293,245.659134 
	C1637.928833,253.121307 1636.227783,255.498581 1628.990967,257.790833 
	C1612.580078,262.988922 1597.214111,256.878906 1595.675049,237.233292 
	C1595.085571,229.708115 1595.176880,221.839294 1596.730591,214.502426 
	C1599.267334,202.523224 1607.853394,196.380142 1620.068359,196.045059 
	C1623.059692,195.962997 1626.059448,196.188995 1629.502441,196.304688 
z"/>
<path fill="#090909" opacity="1.000000" stroke="none" 
	d="
M1285.786377,228.927063 
	C1285.444458,237.066864 1284.793213,244.621857 1280.219727,251.261887 
	C1274.330078,259.813202 1265.667603,260.453644 1256.649414,259.427643 
	C1248.253540,258.472412 1242.599731,253.350616 1240.163086,245.474548 
	C1236.550171,233.796661 1236.235107,221.899002 1240.328613,210.197708 
	C1244.289062,198.876419 1251.953491,194.383377 1264.821533,195.496445 
	C1275.351929,196.407303 1282.656006,203.117203 1284.504639,214.073334 
	C1285.303223,218.806564 1285.381836,223.661255 1285.786377,228.927063 
z"/>
<path fill="#141414" opacity="1.000000" stroke="none" 
	d="
M848.203064,214.797028 
	C841.418518,214.874893 841.436340,214.879486 843.002014,208.798309 
	C845.090515,200.686188 850.602417,196.160736 858.479675,194.394653 
	C866.869812,192.513580 875.089478,193.025330 880.796631,200.242111 
	C883.198730,203.279633 883.967163,207.789505 884.881470,211.767258 
	C885.641174,215.072525 882.872498,214.863281 880.660767,214.856964 
	C869.998413,214.826508 859.335999,214.811066 848.203064,214.797028 
z"/>
<path fill="#141414" opacity="1.000000" stroke="none" 
	d="
M275.472076,193.819397 
	C290.130127,192.964203 298.163055,203.402802 296.313965,214.854736 
	C288.290253,214.854736 280.176056,214.840561 272.061890,214.860199 
	C267.397247,214.871475 262.727448,214.815887 258.069946,215.019531 
	C254.685104,215.167526 253.621704,214.129059 254.449448,210.634399 
	C256.922638,200.192963 263.626801,194.603226 275.472076,193.819397 
z"/>
<path fill="#101010" opacity="1.000000" stroke="none" 
	d="
M1395.011230,236.322266 
	C1399.442383,236.316956 1403.386230,236.316956 1407.891479,236.316956 
	C1407.891479,242.369827 1407.973633,247.637070 1407.817505,252.897217 
	C1407.788574,253.872421 1407.026245,255.120819 1406.216431,255.731644 
	C1399.193237,261.030090 1391.337891,263.673828 1382.489258,262.340027 
	C1375.465942,261.281311 1371.614258,257.281036 1371.252197,251.100296 
	C1370.851929,244.268768 1374.293091,239.211548 1381.214844,237.662033 
	C1385.534302,236.695038 1390.079834,236.737900 1395.011230,236.322266 
z"/>
<path fill="#232323" opacity="1.000000" stroke="none" 
	d="
M925.384705,389.738098 
	C925.044250,388.526123 924.416321,387.316010 924.408569,386.101929 
	C924.342834,375.783539 924.477844,365.463379 924.351501,355.146210 
	C924.311951,351.920380 925.382935,350.733795 928.677185,350.827209 
	C934.996643,351.006348 941.327393,350.739014 947.651917,350.803802 
	C953.939819,350.868225 956.811523,353.215515 956.890991,358.076813 
	C956.979309,363.478668 954.269653,365.876678 947.826294,365.992615 
	C943.166260,366.076477 938.504517,366.103027 933.843628,366.096527 
	C930.616028,366.092010 927.632812,365.587982 927.727478,370.732117 
	C927.816772,375.587250 930.612976,374.946228 933.632507,375.037079 
	C940.416077,375.241119 947.195374,375.582275 954.075439,376.340515 
	C954.174500,376.813416 953.849304,377.158691 953.396912,377.104309 
	C944.098572,377.049896 935.252686,377.049896 926.123169,377.049896 
	C926.123169,380.989288 926.123169,384.912109 925.932495,389.055725 
	C925.622742,389.430389 925.503723,389.584259 925.384705,389.738098 
z"/>
<path fill="#232323" opacity="1.000000" stroke="none" 
	d="
M954.338562,376.642212 
	C958.291687,378.401062 959.008118,381.784119 957.877075,385.317841 
	C956.794556,388.699860 954.099609,390.600067 950.283752,390.536865 
	C942.183167,390.402740 934.081543,390.335785 925.682495,389.989716 
	C925.503723,389.584259 925.622742,389.430389 926.280151,388.952820 
	C934.396912,388.732300 941.975281,388.915833 949.553528,388.907593 
	C953.889648,388.902863 956.441956,386.429016 955.953125,382.592255 
	C955.714844,380.722076 954.578918,378.966278 953.849304,377.158691 
	C953.849304,377.158691 954.174500,376.813416 954.338562,376.642212 
z"/>
<path fill="#0C0C0D" opacity="1.000000" stroke="none" 
	d="
M779.908875,367.454651 
	C781.152954,358.765472 785.653748,353.175354 793.821533,351.392029 
	C802.203796,349.561829 810.761719,349.559662 816.812012,356.826355 
	C822.613159,363.793762 822.876160,372.193146 819.718811,380.396484 
	C816.335449,389.186859 807.389709,393.055420 796.005371,391.349884 
	C786.997131,390.000336 780.746216,383.495392 779.840027,374.355408 
	C779.628418,372.221405 779.835938,370.045807 779.908875,367.454651 
z"/>
<path fill="#040404" opacity="1.000000" stroke="none" 
	d="
M953.396912,377.104309 
	C954.578918,378.966278 955.714844,380.722076 955.953125,382.592255 
	C956.441956,386.429016 953.889648,388.902863 949.553528,388.907593 
	C941.975281,388.915833 934.396912,388.732300 926.470825,388.732025 
	C926.123169,384.912109 926.123169,380.989288 926.123169,377.049896 
	C935.252686,377.049896 944.098572,377.049896 953.396912,377.104309 
z"/>
</svg>